<mxfile host="Electron" agent="Mozilla/5.0 (Windows NT 10.0; Win64; x64) AppleWebKit/537.36 (KHTML, like Gecko) draw.io/28.1.2 Chrome/138.0.7204.243 Electron/37.4.0 Safari/537.36" version="28.1.2">
  <diagram name="Page-1" id="vEVO_MnF3oOFh3FhXfyz">
    <mxGraphModel dx="2562" dy="1294" grid="1" gridSize="10" guides="1" tooltips="1" connect="1" arrows="1" fold="1" page="1" pageScale="1" pageWidth="850" pageHeight="1100" math="0" shadow="0">
      <root>
        <mxCell id="0" />
        <mxCell id="1" parent="0" />
        <mxCell id="wrcg6JFt1QbW0vFvjON_-1" value="CustomerID" style="rounded=0;whiteSpace=wrap;html=1;" vertex="1" parent="1">
          <mxGeometry x="120" y="240" width="120" height="60" as="geometry" />
        </mxCell>
        <mxCell id="wrcg6JFt1QbW0vFvjON_-2" value="CustomerFirstName" style="rounded=0;whiteSpace=wrap;html=1;" vertex="1" parent="1">
          <mxGeometry x="240" y="240" width="120" height="60" as="geometry" />
        </mxCell>
        <mxCell id="wrcg6JFt1QbW0vFvjON_-3" value="CustomerLastName" style="rounded=0;whiteSpace=wrap;html=1;" vertex="1" parent="1">
          <mxGeometry x="360" y="240" width="120" height="60" as="geometry" />
        </mxCell>
        <mxCell id="wrcg6JFt1QbW0vFvjON_-4" value="CompanyName" style="rounded=0;whiteSpace=wrap;html=1;" vertex="1" parent="1">
          <mxGeometry x="480" y="240" width="120" height="60" as="geometry" />
        </mxCell>
        <mxCell id="wrcg6JFt1QbW0vFvjON_-5" value="" style="edgeStyle=elbowEdgeStyle;elbow=vertical;endArrow=classic;html=1;curved=0;rounded=0;endSize=8;startSize=8;entryX=0.5;entryY=0;entryDx=0;entryDy=0;" edge="1" parent="1">
          <mxGeometry width="50" height="50" relative="1" as="geometry">
            <mxPoint x="180" y="240" as="sourcePoint" />
            <mxPoint x="300" y="240" as="targetPoint" />
            <Array as="points">
              <mxPoint x="210" y="170" />
            </Array>
          </mxGeometry>
        </mxCell>
        <mxCell id="wrcg6JFt1QbW0vFvjON_-6" value="" style="edgeStyle=segmentEdgeStyle;endArrow=classic;html=1;curved=0;rounded=0;endSize=8;startSize=8;" edge="1" parent="1">
          <mxGeometry width="50" height="50" relative="1" as="geometry">
            <mxPoint x="300" y="170" as="sourcePoint" />
            <mxPoint x="420" y="240" as="targetPoint" />
          </mxGeometry>
        </mxCell>
        <mxCell id="wrcg6JFt1QbW0vFvjON_-7" value="" style="edgeStyle=segmentEdgeStyle;endArrow=classic;html=1;curved=0;rounded=0;endSize=8;startSize=8;" edge="1" parent="1">
          <mxGeometry width="50" height="50" relative="1" as="geometry">
            <mxPoint x="420" y="170" as="sourcePoint" />
            <mxPoint x="540" y="240" as="targetPoint" />
          </mxGeometry>
        </mxCell>
        <mxCell id="wrcg6JFt1QbW0vFvjON_-8" value="PhoneNumber" style="rounded=0;whiteSpace=wrap;html=1;" vertex="1" parent="1">
          <mxGeometry x="600" y="240" width="120" height="60" as="geometry" />
        </mxCell>
        <mxCell id="wrcg6JFt1QbW0vFvjON_-9" value="" style="edgeStyle=segmentEdgeStyle;endArrow=classic;html=1;curved=0;rounded=0;endSize=8;startSize=8;" edge="1" parent="1">
          <mxGeometry width="50" height="50" relative="1" as="geometry">
            <mxPoint x="540" y="170" as="sourcePoint" />
            <mxPoint x="660" y="240" as="targetPoint" />
          </mxGeometry>
        </mxCell>
        <mxCell id="wrcg6JFt1QbW0vFvjON_-10" value="Email" style="rounded=0;whiteSpace=wrap;html=1;" vertex="1" parent="1">
          <mxGeometry x="720" y="240" width="120" height="60" as="geometry" />
        </mxCell>
        <mxCell id="wrcg6JFt1QbW0vFvjON_-11" value="Address" style="rounded=0;whiteSpace=wrap;html=1;" vertex="1" parent="1">
          <mxGeometry x="840" y="240" width="120" height="60" as="geometry" />
        </mxCell>
        <mxCell id="wrcg6JFt1QbW0vFvjON_-12" value="" style="edgeStyle=segmentEdgeStyle;endArrow=classic;html=1;curved=0;rounded=0;endSize=8;startSize=8;" edge="1" parent="1">
          <mxGeometry width="50" height="50" relative="1" as="geometry">
            <mxPoint x="660" y="170" as="sourcePoint" />
            <mxPoint x="780" y="240" as="targetPoint" />
          </mxGeometry>
        </mxCell>
        <mxCell id="wrcg6JFt1QbW0vFvjON_-13" value="" style="edgeStyle=segmentEdgeStyle;endArrow=classic;html=1;curved=0;rounded=0;endSize=8;startSize=8;" edge="1" parent="1">
          <mxGeometry width="50" height="50" relative="1" as="geometry">
            <mxPoint x="780" y="170" as="sourcePoint" />
            <mxPoint x="900" y="240" as="targetPoint" />
          </mxGeometry>
        </mxCell>
        <mxCell id="wrcg6JFt1QbW0vFvjON_-14" value="DateOfBirth" style="rounded=0;whiteSpace=wrap;html=1;" vertex="1" parent="1">
          <mxGeometry x="960" y="240" width="120" height="60" as="geometry" />
        </mxCell>
        <mxCell id="wrcg6JFt1QbW0vFvjON_-15" value="" style="edgeStyle=segmentEdgeStyle;endArrow=classic;html=1;curved=0;rounded=0;endSize=8;startSize=8;" edge="1" parent="1">
          <mxGeometry width="50" height="50" relative="1" as="geometry">
            <mxPoint x="900" y="170" as="sourcePoint" />
            <mxPoint x="1020" y="240" as="targetPoint" />
          </mxGeometry>
        </mxCell>
        <mxCell id="wrcg6JFt1QbW0vFvjON_-16" value="IdentityVerified" style="rounded=0;whiteSpace=wrap;html=1;" vertex="1" parent="1">
          <mxGeometry x="1080" y="240" width="120" height="60" as="geometry" />
        </mxCell>
        <mxCell id="wrcg6JFt1QbW0vFvjON_-17" value="VendorID" style="rounded=0;whiteSpace=wrap;html=1;" vertex="1" parent="1">
          <mxGeometry x="1200" y="240" width="120" height="60" as="geometry" />
        </mxCell>
        <mxCell id="wrcg6JFt1QbW0vFvjON_-18" value="" style="edgeStyle=segmentEdgeStyle;endArrow=classic;html=1;curved=0;rounded=0;endSize=8;startSize=8;" edge="1" parent="1">
          <mxGeometry width="50" height="50" relative="1" as="geometry">
            <mxPoint x="1020" y="170" as="sourcePoint" />
            <mxPoint x="1140" y="240" as="targetPoint" />
          </mxGeometry>
        </mxCell>
        <mxCell id="wrcg6JFt1QbW0vFvjON_-19" value="" style="edgeStyle=segmentEdgeStyle;endArrow=classic;html=1;curved=0;rounded=0;endSize=8;startSize=8;" edge="1" parent="1">
          <mxGeometry width="50" height="50" relative="1" as="geometry">
            <mxPoint x="1140" y="170" as="sourcePoint" />
            <mxPoint x="1260" y="240" as="targetPoint" />
          </mxGeometry>
        </mxCell>
        <mxCell id="wrcg6JFt1QbW0vFvjON_-22" value="Customer" style="rounded=1;whiteSpace=wrap;html=1;" vertex="1" parent="1">
          <mxGeometry x="20" y="110" width="120" height="60" as="geometry" />
        </mxCell>
        <mxCell id="wrcg6JFt1QbW0vFvjON_-23" value="SpaceshipID" style="rounded=0;whiteSpace=wrap;html=1;" vertex="1" parent="1">
          <mxGeometry x="120" y="490" width="120" height="60" as="geometry" />
        </mxCell>
        <mxCell id="wrcg6JFt1QbW0vFvjON_-24" value="SerialNumber" style="rounded=0;whiteSpace=wrap;html=1;" vertex="1" parent="1">
          <mxGeometry x="240" y="490" width="120" height="60" as="geometry" />
        </mxCell>
        <mxCell id="wrcg6JFt1QbW0vFvjON_-25" value="VendorID" style="rounded=0;whiteSpace=wrap;html=1;" vertex="1" parent="1">
          <mxGeometry x="360" y="490" width="120" height="60" as="geometry" />
        </mxCell>
        <mxCell id="wrcg6JFt1QbW0vFvjON_-26" value="InvoiceID" style="rounded=0;whiteSpace=wrap;html=1;" vertex="1" parent="1">
          <mxGeometry x="480" y="490" width="120" height="60" as="geometry" />
        </mxCell>
        <mxCell id="wrcg6JFt1QbW0vFvjON_-27" value="" style="edgeStyle=elbowEdgeStyle;elbow=vertical;endArrow=classic;html=1;curved=0;rounded=0;endSize=8;startSize=8;entryX=0.5;entryY=0;entryDx=0;entryDy=0;" edge="1" parent="1">
          <mxGeometry width="50" height="50" relative="1" as="geometry">
            <mxPoint x="180" y="490" as="sourcePoint" />
            <mxPoint x="300" y="490" as="targetPoint" />
            <Array as="points">
              <mxPoint x="210" y="420" />
            </Array>
          </mxGeometry>
        </mxCell>
        <mxCell id="wrcg6JFt1QbW0vFvjON_-28" value="" style="edgeStyle=segmentEdgeStyle;endArrow=classic;html=1;curved=0;rounded=0;endSize=8;startSize=8;" edge="1" parent="1">
          <mxGeometry width="50" height="50" relative="1" as="geometry">
            <mxPoint x="300" y="420" as="sourcePoint" />
            <mxPoint x="420" y="490" as="targetPoint" />
          </mxGeometry>
        </mxCell>
        <mxCell id="wrcg6JFt1QbW0vFvjON_-29" value="" style="edgeStyle=segmentEdgeStyle;endArrow=classic;html=1;curved=0;rounded=0;endSize=8;startSize=8;" edge="1" parent="1">
          <mxGeometry width="50" height="50" relative="1" as="geometry">
            <mxPoint x="420" y="420" as="sourcePoint" />
            <mxPoint x="540" y="490" as="targetPoint" />
          </mxGeometry>
        </mxCell>
        <mxCell id="wrcg6JFt1QbW0vFvjON_-30" value="Make" style="rounded=0;whiteSpace=wrap;html=1;" vertex="1" parent="1">
          <mxGeometry x="600" y="490" width="120" height="60" as="geometry" />
        </mxCell>
        <mxCell id="wrcg6JFt1QbW0vFvjON_-31" value="" style="edgeStyle=segmentEdgeStyle;endArrow=classic;html=1;curved=0;rounded=0;endSize=8;startSize=8;" edge="1" parent="1">
          <mxGeometry width="50" height="50" relative="1" as="geometry">
            <mxPoint x="540" y="420" as="sourcePoint" />
            <mxPoint x="660" y="490" as="targetPoint" />
          </mxGeometry>
        </mxCell>
        <mxCell id="wrcg6JFt1QbW0vFvjON_-32" value="Model" style="rounded=0;whiteSpace=wrap;html=1;" vertex="1" parent="1">
          <mxGeometry x="720" y="490" width="120" height="60" as="geometry" />
        </mxCell>
        <mxCell id="wrcg6JFt1QbW0vFvjON_-33" value="ModelYear" style="rounded=0;whiteSpace=wrap;html=1;" vertex="1" parent="1">
          <mxGeometry x="840" y="490" width="120" height="60" as="geometry" />
        </mxCell>
        <mxCell id="wrcg6JFt1QbW0vFvjON_-34" value="" style="edgeStyle=segmentEdgeStyle;endArrow=classic;html=1;curved=0;rounded=0;endSize=8;startSize=8;" edge="1" parent="1">
          <mxGeometry width="50" height="50" relative="1" as="geometry">
            <mxPoint x="660" y="420" as="sourcePoint" />
            <mxPoint x="780" y="490" as="targetPoint" />
          </mxGeometry>
        </mxCell>
        <mxCell id="wrcg6JFt1QbW0vFvjON_-35" value="" style="edgeStyle=segmentEdgeStyle;endArrow=classic;html=1;curved=0;rounded=0;endSize=8;startSize=8;" edge="1" parent="1">
          <mxGeometry width="50" height="50" relative="1" as="geometry">
            <mxPoint x="780" y="420" as="sourcePoint" />
            <mxPoint x="900" y="490" as="targetPoint" />
          </mxGeometry>
        </mxCell>
        <mxCell id="wrcg6JFt1QbW0vFvjON_-36" value="Condition" style="rounded=0;whiteSpace=wrap;html=1;" vertex="1" parent="1">
          <mxGeometry x="960" y="490" width="120" height="60" as="geometry" />
        </mxCell>
        <mxCell id="wrcg6JFt1QbW0vFvjON_-37" value="" style="edgeStyle=segmentEdgeStyle;endArrow=classic;html=1;curved=0;rounded=0;endSize=8;startSize=8;" edge="1" parent="1">
          <mxGeometry width="50" height="50" relative="1" as="geometry">
            <mxPoint x="900" y="420" as="sourcePoint" />
            <mxPoint x="1020" y="490" as="targetPoint" />
          </mxGeometry>
        </mxCell>
        <mxCell id="wrcg6JFt1QbW0vFvjON_-38" value="Modifications" style="rounded=0;whiteSpace=wrap;html=1;" vertex="1" parent="1">
          <mxGeometry x="1080" y="490" width="120" height="60" as="geometry" />
        </mxCell>
        <mxCell id="wrcg6JFt1QbW0vFvjON_-39" value="SalePrice" style="rounded=0;whiteSpace=wrap;html=1;" vertex="1" parent="1">
          <mxGeometry x="1200" y="490" width="120" height="60" as="geometry" />
        </mxCell>
        <mxCell id="wrcg6JFt1QbW0vFvjON_-40" value="" style="edgeStyle=segmentEdgeStyle;endArrow=classic;html=1;curved=0;rounded=0;endSize=8;startSize=8;" edge="1" parent="1">
          <mxGeometry width="50" height="50" relative="1" as="geometry">
            <mxPoint x="1020" y="420" as="sourcePoint" />
            <mxPoint x="1140" y="490" as="targetPoint" />
          </mxGeometry>
        </mxCell>
        <mxCell id="wrcg6JFt1QbW0vFvjON_-41" value="" style="edgeStyle=segmentEdgeStyle;endArrow=classic;html=1;curved=0;rounded=0;endSize=8;startSize=8;" edge="1" parent="1">
          <mxGeometry width="50" height="50" relative="1" as="geometry">
            <mxPoint x="1140" y="420" as="sourcePoint" />
            <mxPoint x="1260" y="490" as="targetPoint" />
          </mxGeometry>
        </mxCell>
        <mxCell id="wrcg6JFt1QbW0vFvjON_-42" value="Spaceship" style="rounded=1;whiteSpace=wrap;html=1;" vertex="1" parent="1">
          <mxGeometry x="20" y="360" width="120" height="60" as="geometry" />
        </mxCell>
        <mxCell id="wrcg6JFt1QbW0vFvjON_-43" value="LastMaintenanceDate" style="rounded=0;whiteSpace=wrap;html=1;" vertex="1" parent="1">
          <mxGeometry x="1320" y="490" width="120" height="60" as="geometry" />
        </mxCell>
        <mxCell id="wrcg6JFt1QbW0vFvjON_-44" value="" style="edgeStyle=segmentEdgeStyle;endArrow=classic;html=1;curved=0;rounded=0;endSize=8;startSize=8;" edge="1" parent="1">
          <mxGeometry width="50" height="50" relative="1" as="geometry">
            <mxPoint x="1260" y="420" as="sourcePoint" />
            <mxPoint x="1380" y="490" as="targetPoint" />
          </mxGeometry>
        </mxCell>
        <mxCell id="wrcg6JFt1QbW0vFvjON_-45" value="OrderID" style="rounded=0;whiteSpace=wrap;html=1;" vertex="1" parent="1">
          <mxGeometry x="120" y="720" width="120" height="60" as="geometry" />
        </mxCell>
        <mxCell id="wrcg6JFt1QbW0vFvjON_-46" value="InvoiceID" style="rounded=0;whiteSpace=wrap;html=1;" vertex="1" parent="1">
          <mxGeometry x="240" y="720" width="120" height="60" as="geometry" />
        </mxCell>
        <mxCell id="wrcg6JFt1QbW0vFvjON_-47" value="CustomerID" style="rounded=0;whiteSpace=wrap;html=1;" vertex="1" parent="1">
          <mxGeometry x="360" y="720" width="120" height="60" as="geometry" />
        </mxCell>
        <mxCell id="wrcg6JFt1QbW0vFvjON_-48" value="SpaceshipID" style="rounded=0;whiteSpace=wrap;html=1;" vertex="1" parent="1">
          <mxGeometry x="480" y="720" width="120" height="60" as="geometry" />
        </mxCell>
        <mxCell id="wrcg6JFt1QbW0vFvjON_-49" value="" style="edgeStyle=elbowEdgeStyle;elbow=vertical;endArrow=classic;html=1;curved=0;rounded=0;endSize=8;startSize=8;entryX=0.5;entryY=0;entryDx=0;entryDy=0;" edge="1" parent="1">
          <mxGeometry width="50" height="50" relative="1" as="geometry">
            <mxPoint x="180" y="720" as="sourcePoint" />
            <mxPoint x="300" y="720" as="targetPoint" />
            <Array as="points">
              <mxPoint x="210" y="650" />
            </Array>
          </mxGeometry>
        </mxCell>
        <mxCell id="wrcg6JFt1QbW0vFvjON_-50" value="" style="edgeStyle=segmentEdgeStyle;endArrow=classic;html=1;curved=0;rounded=0;endSize=8;startSize=8;" edge="1" parent="1">
          <mxGeometry width="50" height="50" relative="1" as="geometry">
            <mxPoint x="300" y="650" as="sourcePoint" />
            <mxPoint x="420" y="720" as="targetPoint" />
          </mxGeometry>
        </mxCell>
        <mxCell id="wrcg6JFt1QbW0vFvjON_-51" value="" style="edgeStyle=segmentEdgeStyle;endArrow=classic;html=1;curved=0;rounded=0;endSize=8;startSize=8;" edge="1" parent="1">
          <mxGeometry width="50" height="50" relative="1" as="geometry">
            <mxPoint x="420" y="650" as="sourcePoint" />
            <mxPoint x="540" y="720" as="targetPoint" />
          </mxGeometry>
        </mxCell>
        <mxCell id="wrcg6JFt1QbW0vFvjON_-52" value="OrderDateTime" style="rounded=0;whiteSpace=wrap;html=1;" vertex="1" parent="1">
          <mxGeometry x="600" y="720" width="120" height="60" as="geometry" />
        </mxCell>
        <mxCell id="wrcg6JFt1QbW0vFvjON_-53" value="" style="edgeStyle=segmentEdgeStyle;endArrow=classic;html=1;curved=0;rounded=0;endSize=8;startSize=8;" edge="1" parent="1">
          <mxGeometry width="50" height="50" relative="1" as="geometry">
            <mxPoint x="540" y="650" as="sourcePoint" />
            <mxPoint x="660" y="720" as="targetPoint" />
          </mxGeometry>
        </mxCell>
        <mxCell id="wrcg6JFt1QbW0vFvjON_-54" value="Destination" style="rounded=0;whiteSpace=wrap;html=1;" vertex="1" parent="1">
          <mxGeometry x="720" y="720" width="120" height="60" as="geometry" />
        </mxCell>
        <mxCell id="wrcg6JFt1QbW0vFvjON_-55" value="OrderStatus" style="rounded=0;whiteSpace=wrap;html=1;" vertex="1" parent="1">
          <mxGeometry x="840" y="720" width="120" height="60" as="geometry" />
        </mxCell>
        <mxCell id="wrcg6JFt1QbW0vFvjON_-56" value="" style="edgeStyle=segmentEdgeStyle;endArrow=classic;html=1;curved=0;rounded=0;endSize=8;startSize=8;" edge="1" parent="1">
          <mxGeometry width="50" height="50" relative="1" as="geometry">
            <mxPoint x="660" y="650" as="sourcePoint" />
            <mxPoint x="780" y="720" as="targetPoint" />
          </mxGeometry>
        </mxCell>
        <mxCell id="wrcg6JFt1QbW0vFvjON_-57" value="" style="edgeStyle=segmentEdgeStyle;endArrow=classic;html=1;curved=0;rounded=0;endSize=8;startSize=8;" edge="1" parent="1">
          <mxGeometry width="50" height="50" relative="1" as="geometry">
            <mxPoint x="780" y="650" as="sourcePoint" />
            <mxPoint x="900" y="720" as="targetPoint" />
          </mxGeometry>
        </mxCell>
        <mxCell id="wrcg6JFt1QbW0vFvjON_-58" value="DiscountApplied" style="rounded=0;whiteSpace=wrap;html=1;" vertex="1" parent="1">
          <mxGeometry x="960" y="720" width="120" height="60" as="geometry" />
        </mxCell>
        <mxCell id="wrcg6JFt1QbW0vFvjON_-59" value="" style="edgeStyle=segmentEdgeStyle;endArrow=classic;html=1;curved=0;rounded=0;endSize=8;startSize=8;" edge="1" parent="1">
          <mxGeometry width="50" height="50" relative="1" as="geometry">
            <mxPoint x="900" y="650" as="sourcePoint" />
            <mxPoint x="1020" y="720" as="targetPoint" />
          </mxGeometry>
        </mxCell>
        <mxCell id="wrcg6JFt1QbW0vFvjON_-60" value="OrderTotal" style="rounded=0;whiteSpace=wrap;html=1;" vertex="1" parent="1">
          <mxGeometry x="1080" y="720" width="120" height="60" as="geometry" />
        </mxCell>
        <mxCell id="wrcg6JFt1QbW0vFvjON_-62" value="" style="edgeStyle=segmentEdgeStyle;endArrow=classic;html=1;curved=0;rounded=0;endSize=8;startSize=8;" edge="1" parent="1">
          <mxGeometry width="50" height="50" relative="1" as="geometry">
            <mxPoint x="1020" y="650" as="sourcePoint" />
            <mxPoint x="1140" y="720" as="targetPoint" />
          </mxGeometry>
        </mxCell>
        <mxCell id="wrcg6JFt1QbW0vFvjON_-64" value="Order" style="rounded=1;whiteSpace=wrap;html=1;" vertex="1" parent="1">
          <mxGeometry x="20" y="590" width="120" height="60" as="geometry" />
        </mxCell>
        <mxCell id="wrcg6JFt1QbW0vFvjON_-67" value="OrderID" style="rounded=0;whiteSpace=wrap;html=1;" vertex="1" parent="1">
          <mxGeometry x="120" y="950" width="120" height="60" as="geometry" />
        </mxCell>
        <mxCell id="wrcg6JFt1QbW0vFvjON_-68" value="PartID" style="rounded=0;whiteSpace=wrap;html=1;" vertex="1" parent="1">
          <mxGeometry x="240" y="950" width="120" height="60" as="geometry" />
        </mxCell>
        <mxCell id="wrcg6JFt1QbW0vFvjON_-69" value="QuantityUsed" style="rounded=0;whiteSpace=wrap;html=1;" vertex="1" parent="1">
          <mxGeometry x="360" y="950" width="120" height="60" as="geometry" />
        </mxCell>
        <mxCell id="wrcg6JFt1QbW0vFvjON_-70" value="PRIMARY KEY(OrderID, Part ID)" style="rounded=0;whiteSpace=wrap;html=1;" vertex="1" parent="1">
          <mxGeometry x="480" y="950" width="120" height="60" as="geometry" />
        </mxCell>
        <mxCell id="wrcg6JFt1QbW0vFvjON_-71" value="" style="edgeStyle=elbowEdgeStyle;elbow=vertical;endArrow=classic;html=1;curved=0;rounded=0;endSize=8;startSize=8;entryX=0.5;entryY=0;entryDx=0;entryDy=0;" edge="1" parent="1">
          <mxGeometry width="50" height="50" relative="1" as="geometry">
            <mxPoint x="180" y="950" as="sourcePoint" />
            <mxPoint x="300" y="950" as="targetPoint" />
            <Array as="points">
              <mxPoint x="210" y="880" />
            </Array>
          </mxGeometry>
        </mxCell>
        <mxCell id="wrcg6JFt1QbW0vFvjON_-72" value="" style="edgeStyle=segmentEdgeStyle;endArrow=classic;html=1;curved=0;rounded=0;endSize=8;startSize=8;" edge="1" parent="1">
          <mxGeometry width="50" height="50" relative="1" as="geometry">
            <mxPoint x="300" y="880" as="sourcePoint" />
            <mxPoint x="420" y="950" as="targetPoint" />
          </mxGeometry>
        </mxCell>
        <mxCell id="wrcg6JFt1QbW0vFvjON_-73" value="" style="edgeStyle=segmentEdgeStyle;endArrow=classic;html=1;curved=0;rounded=0;endSize=8;startSize=8;" edge="1" parent="1">
          <mxGeometry width="50" height="50" relative="1" as="geometry">
            <mxPoint x="420" y="880" as="sourcePoint" />
            <mxPoint x="540" y="950" as="targetPoint" />
          </mxGeometry>
        </mxCell>
        <mxCell id="wrcg6JFt1QbW0vFvjON_-83" value="OrderParts" style="rounded=1;whiteSpace=wrap;html=1;" vertex="1" parent="1">
          <mxGeometry x="20" y="820" width="120" height="60" as="geometry" />
        </mxCell>
        <mxCell id="wrcg6JFt1QbW0vFvjON_-84" value="PartID" style="rounded=0;whiteSpace=wrap;html=1;" vertex="1" parent="1">
          <mxGeometry x="120" y="1190" width="120" height="60" as="geometry" />
        </mxCell>
        <mxCell id="wrcg6JFt1QbW0vFvjON_-85" value="SpaceshipID" style="rounded=0;whiteSpace=wrap;html=1;" vertex="1" parent="1">
          <mxGeometry x="240" y="1190" width="120" height="60" as="geometry" />
        </mxCell>
        <mxCell id="wrcg6JFt1QbW0vFvjON_-86" value="QuantityInStock" style="rounded=0;whiteSpace=wrap;html=1;" vertex="1" parent="1">
          <mxGeometry x="360" y="1190" width="120" height="60" as="geometry" />
        </mxCell>
        <mxCell id="wrcg6JFt1QbW0vFvjON_-87" value="UnitPrice" style="rounded=0;whiteSpace=wrap;html=1;" vertex="1" parent="1">
          <mxGeometry x="480" y="1190" width="120" height="60" as="geometry" />
        </mxCell>
        <mxCell id="wrcg6JFt1QbW0vFvjON_-88" value="" style="edgeStyle=elbowEdgeStyle;elbow=vertical;endArrow=classic;html=1;curved=0;rounded=0;endSize=8;startSize=8;entryX=0.5;entryY=0;entryDx=0;entryDy=0;" edge="1" parent="1">
          <mxGeometry width="50" height="50" relative="1" as="geometry">
            <mxPoint x="180" y="1190" as="sourcePoint" />
            <mxPoint x="300" y="1190" as="targetPoint" />
            <Array as="points">
              <mxPoint x="210" y="1120" />
            </Array>
          </mxGeometry>
        </mxCell>
        <mxCell id="wrcg6JFt1QbW0vFvjON_-89" value="" style="edgeStyle=segmentEdgeStyle;endArrow=classic;html=1;curved=0;rounded=0;endSize=8;startSize=8;" edge="1" parent="1">
          <mxGeometry width="50" height="50" relative="1" as="geometry">
            <mxPoint x="300" y="1120" as="sourcePoint" />
            <mxPoint x="420" y="1190" as="targetPoint" />
          </mxGeometry>
        </mxCell>
        <mxCell id="wrcg6JFt1QbW0vFvjON_-90" value="" style="edgeStyle=segmentEdgeStyle;endArrow=classic;html=1;curved=0;rounded=0;endSize=8;startSize=8;" edge="1" parent="1">
          <mxGeometry width="50" height="50" relative="1" as="geometry">
            <mxPoint x="420" y="1120" as="sourcePoint" />
            <mxPoint x="540" y="1190" as="targetPoint" />
          </mxGeometry>
        </mxCell>
        <mxCell id="wrcg6JFt1QbW0vFvjON_-91" value="PartName" style="rounded=0;whiteSpace=wrap;html=1;" vertex="1" parent="1">
          <mxGeometry x="600" y="1190" width="120" height="60" as="geometry" />
        </mxCell>
        <mxCell id="wrcg6JFt1QbW0vFvjON_-92" value="" style="edgeStyle=segmentEdgeStyle;endArrow=classic;html=1;curved=0;rounded=0;endSize=8;startSize=8;" edge="1" parent="1">
          <mxGeometry width="50" height="50" relative="1" as="geometry">
            <mxPoint x="540" y="1120" as="sourcePoint" />
            <mxPoint x="660" y="1190" as="targetPoint" />
          </mxGeometry>
        </mxCell>
        <mxCell id="wrcg6JFt1QbW0vFvjON_-93" value="PartDescription" style="rounded=0;whiteSpace=wrap;html=1;" vertex="1" parent="1">
          <mxGeometry x="720" y="1190" width="120" height="60" as="geometry" />
        </mxCell>
        <mxCell id="wrcg6JFt1QbW0vFvjON_-94" value="Manufacturer" style="rounded=0;whiteSpace=wrap;html=1;" vertex="1" parent="1">
          <mxGeometry x="840" y="1190" width="120" height="60" as="geometry" />
        </mxCell>
        <mxCell id="wrcg6JFt1QbW0vFvjON_-95" value="" style="edgeStyle=segmentEdgeStyle;endArrow=classic;html=1;curved=0;rounded=0;endSize=8;startSize=8;" edge="1" parent="1">
          <mxGeometry width="50" height="50" relative="1" as="geometry">
            <mxPoint x="660" y="1120" as="sourcePoint" />
            <mxPoint x="780" y="1190" as="targetPoint" />
          </mxGeometry>
        </mxCell>
        <mxCell id="wrcg6JFt1QbW0vFvjON_-96" value="" style="edgeStyle=segmentEdgeStyle;endArrow=classic;html=1;curved=0;rounded=0;endSize=8;startSize=8;" edge="1" parent="1">
          <mxGeometry width="50" height="50" relative="1" as="geometry">
            <mxPoint x="780" y="1120" as="sourcePoint" />
            <mxPoint x="900" y="1190" as="targetPoint" />
          </mxGeometry>
        </mxCell>
        <mxCell id="wrcg6JFt1QbW0vFvjON_-97" value="WarrantyExpirationDate" style="rounded=0;whiteSpace=wrap;html=1;" vertex="1" parent="1">
          <mxGeometry x="960" y="1190" width="150" height="60" as="geometry" />
        </mxCell>
        <mxCell id="wrcg6JFt1QbW0vFvjON_-98" value="" style="edgeStyle=segmentEdgeStyle;endArrow=classic;html=1;curved=0;rounded=0;endSize=8;startSize=8;" edge="1" parent="1">
          <mxGeometry width="50" height="50" relative="1" as="geometry">
            <mxPoint x="900" y="1120" as="sourcePoint" />
            <mxPoint x="1020" y="1190" as="targetPoint" />
          </mxGeometry>
        </mxCell>
        <mxCell id="wrcg6JFt1QbW0vFvjON_-99" value="PartNumber" style="rounded=0;whiteSpace=wrap;html=1;" vertex="1" parent="1">
          <mxGeometry x="1110" y="1190" width="120" height="60" as="geometry" />
        </mxCell>
        <mxCell id="wrcg6JFt1QbW0vFvjON_-100" value="" style="edgeStyle=segmentEdgeStyle;endArrow=classic;html=1;curved=0;rounded=0;endSize=8;startSize=8;" edge="1" parent="1">
          <mxGeometry width="50" height="50" relative="1" as="geometry">
            <mxPoint x="1020" y="1120" as="sourcePoint" />
            <mxPoint x="1170" y="1190" as="targetPoint" />
            <Array as="points">
              <mxPoint x="1170" y="1120" />
            </Array>
          </mxGeometry>
        </mxCell>
        <mxCell id="wrcg6JFt1QbW0vFvjON_-101" value="Parts" style="rounded=1;whiteSpace=wrap;html=1;" vertex="1" parent="1">
          <mxGeometry x="20" y="1060" width="120" height="60" as="geometry" />
        </mxCell>
        <mxCell id="wrcg6JFt1QbW0vFvjON_-104" value="" style="edgeStyle=segmentEdgeStyle;endArrow=classic;html=1;curved=0;rounded=0;endSize=8;startSize=8;" edge="1" parent="1">
          <mxGeometry width="50" height="50" relative="1" as="geometry">
            <mxPoint x="1170" y="1120" as="sourcePoint" />
            <mxPoint x="1290" y="1190" as="targetPoint" />
          </mxGeometry>
        </mxCell>
        <mxCell id="wrcg6JFt1QbW0vFvjON_-105" value="PartStatus" style="rounded=0;whiteSpace=wrap;html=1;" vertex="1" parent="1">
          <mxGeometry x="1230" y="1190" width="120" height="60" as="geometry" />
        </mxCell>
        <mxCell id="wrcg6JFt1QbW0vFvjON_-107" value="PaymentID" style="rounded=0;whiteSpace=wrap;html=1;" vertex="1" parent="1">
          <mxGeometry x="120" y="1420" width="120" height="60" as="geometry" />
        </mxCell>
        <mxCell id="wrcg6JFt1QbW0vFvjON_-108" value="InvoiceID" style="rounded=0;whiteSpace=wrap;html=1;" vertex="1" parent="1">
          <mxGeometry x="240" y="1420" width="120" height="60" as="geometry" />
        </mxCell>
        <mxCell id="wrcg6JFt1QbW0vFvjON_-109" value="VendorID" style="rounded=0;whiteSpace=wrap;html=1;" vertex="1" parent="1">
          <mxGeometry x="360" y="1420" width="120" height="60" as="geometry" />
        </mxCell>
        <mxCell id="wrcg6JFt1QbW0vFvjON_-110" value="OrderID" style="rounded=0;whiteSpace=wrap;html=1;" vertex="1" parent="1">
          <mxGeometry x="480" y="1420" width="120" height="60" as="geometry" />
        </mxCell>
        <mxCell id="wrcg6JFt1QbW0vFvjON_-111" value="" style="edgeStyle=elbowEdgeStyle;elbow=vertical;endArrow=classic;html=1;curved=0;rounded=0;endSize=8;startSize=8;entryX=0.5;entryY=0;entryDx=0;entryDy=0;" edge="1" parent="1">
          <mxGeometry width="50" height="50" relative="1" as="geometry">
            <mxPoint x="180" y="1420" as="sourcePoint" />
            <mxPoint x="300" y="1420" as="targetPoint" />
            <Array as="points">
              <mxPoint x="210" y="1350" />
            </Array>
          </mxGeometry>
        </mxCell>
        <mxCell id="wrcg6JFt1QbW0vFvjON_-112" value="" style="edgeStyle=segmentEdgeStyle;endArrow=classic;html=1;curved=0;rounded=0;endSize=8;startSize=8;" edge="1" parent="1">
          <mxGeometry width="50" height="50" relative="1" as="geometry">
            <mxPoint x="300" y="1350" as="sourcePoint" />
            <mxPoint x="420" y="1420" as="targetPoint" />
          </mxGeometry>
        </mxCell>
        <mxCell id="wrcg6JFt1QbW0vFvjON_-113" value="" style="edgeStyle=segmentEdgeStyle;endArrow=classic;html=1;curved=0;rounded=0;endSize=8;startSize=8;" edge="1" parent="1">
          <mxGeometry width="50" height="50" relative="1" as="geometry">
            <mxPoint x="420" y="1350" as="sourcePoint" />
            <mxPoint x="540" y="1420" as="targetPoint" />
          </mxGeometry>
        </mxCell>
        <mxCell id="wrcg6JFt1QbW0vFvjON_-114" value="CustomerID" style="rounded=0;whiteSpace=wrap;html=1;" vertex="1" parent="1">
          <mxGeometry x="600" y="1420" width="120" height="60" as="geometry" />
        </mxCell>
        <mxCell id="wrcg6JFt1QbW0vFvjON_-115" value="" style="edgeStyle=segmentEdgeStyle;endArrow=classic;html=1;curved=0;rounded=0;endSize=8;startSize=8;" edge="1" parent="1">
          <mxGeometry width="50" height="50" relative="1" as="geometry">
            <mxPoint x="540" y="1350" as="sourcePoint" />
            <mxPoint x="660" y="1420" as="targetPoint" />
          </mxGeometry>
        </mxCell>
        <mxCell id="wrcg6JFt1QbW0vFvjON_-116" value="PaymentMethod" style="rounded=0;whiteSpace=wrap;html=1;" vertex="1" parent="1">
          <mxGeometry x="720" y="1420" width="120" height="60" as="geometry" />
        </mxCell>
        <mxCell id="wrcg6JFt1QbW0vFvjON_-117" value="PaymentAmount" style="rounded=0;whiteSpace=wrap;html=1;" vertex="1" parent="1">
          <mxGeometry x="840" y="1420" width="120" height="60" as="geometry" />
        </mxCell>
        <mxCell id="wrcg6JFt1QbW0vFvjON_-118" value="" style="edgeStyle=segmentEdgeStyle;endArrow=classic;html=1;curved=0;rounded=0;endSize=8;startSize=8;" edge="1" parent="1">
          <mxGeometry width="50" height="50" relative="1" as="geometry">
            <mxPoint x="660" y="1350" as="sourcePoint" />
            <mxPoint x="780" y="1420" as="targetPoint" />
          </mxGeometry>
        </mxCell>
        <mxCell id="wrcg6JFt1QbW0vFvjON_-119" value="" style="edgeStyle=segmentEdgeStyle;endArrow=classic;html=1;curved=0;rounded=0;endSize=8;startSize=8;" edge="1" parent="1">
          <mxGeometry width="50" height="50" relative="1" as="geometry">
            <mxPoint x="780" y="1350" as="sourcePoint" />
            <mxPoint x="900" y="1420" as="targetPoint" />
          </mxGeometry>
        </mxCell>
        <mxCell id="wrcg6JFt1QbW0vFvjON_-120" value="PaymentDateTime" style="rounded=0;whiteSpace=wrap;html=1;" vertex="1" parent="1">
          <mxGeometry x="960" y="1420" width="150" height="60" as="geometry" />
        </mxCell>
        <mxCell id="wrcg6JFt1QbW0vFvjON_-121" value="" style="edgeStyle=segmentEdgeStyle;endArrow=classic;html=1;curved=0;rounded=0;endSize=8;startSize=8;" edge="1" parent="1">
          <mxGeometry width="50" height="50" relative="1" as="geometry">
            <mxPoint x="900" y="1350" as="sourcePoint" />
            <mxPoint x="1020" y="1420" as="targetPoint" />
          </mxGeometry>
        </mxCell>
        <mxCell id="wrcg6JFt1QbW0vFvjON_-122" value="TransactionID" style="rounded=0;whiteSpace=wrap;html=1;" vertex="1" parent="1">
          <mxGeometry x="1110" y="1420" width="120" height="60" as="geometry" />
        </mxCell>
        <mxCell id="wrcg6JFt1QbW0vFvjON_-123" value="" style="edgeStyle=segmentEdgeStyle;endArrow=classic;html=1;curved=0;rounded=0;endSize=8;startSize=8;" edge="1" parent="1">
          <mxGeometry width="50" height="50" relative="1" as="geometry">
            <mxPoint x="1020" y="1350" as="sourcePoint" />
            <mxPoint x="1170" y="1420" as="targetPoint" />
            <Array as="points">
              <mxPoint x="1170" y="1350" />
            </Array>
          </mxGeometry>
        </mxCell>
        <mxCell id="wrcg6JFt1QbW0vFvjON_-124" value="Payment" style="rounded=1;whiteSpace=wrap;html=1;" vertex="1" parent="1">
          <mxGeometry x="20" y="1290" width="120" height="60" as="geometry" />
        </mxCell>
        <mxCell id="wrcg6JFt1QbW0vFvjON_-125" value="PaymentStatus" style="rounded=0;whiteSpace=wrap;html=1;" vertex="1" parent="1">
          <mxGeometry x="1230" y="1420" width="120" height="60" as="geometry" />
        </mxCell>
        <mxCell id="wrcg6JFt1QbW0vFvjON_-126" value="" style="edgeStyle=segmentEdgeStyle;endArrow=classic;html=1;curved=0;rounded=0;endSize=8;startSize=8;" edge="1" parent="1">
          <mxGeometry width="50" height="50" relative="1" as="geometry">
            <mxPoint x="1170" y="1350" as="sourcePoint" />
            <mxPoint x="1290" y="1420" as="targetPoint" />
          </mxGeometry>
        </mxCell>
        <mxCell id="wrcg6JFt1QbW0vFvjON_-127" value="Currency" style="rounded=0;whiteSpace=wrap;html=1;" vertex="1" parent="1">
          <mxGeometry x="1350" y="1420" width="120" height="60" as="geometry" />
        </mxCell>
        <mxCell id="wrcg6JFt1QbW0vFvjON_-128" value="" style="edgeStyle=segmentEdgeStyle;endArrow=classic;html=1;curved=0;rounded=0;endSize=8;startSize=8;" edge="1" parent="1">
          <mxGeometry width="50" height="50" relative="1" as="geometry">
            <mxPoint x="1290" y="1350" as="sourcePoint" />
            <mxPoint x="1410" y="1420" as="targetPoint" />
          </mxGeometry>
        </mxCell>
        <mxCell id="wrcg6JFt1QbW0vFvjON_-129" value="EmployeeID" style="rounded=0;whiteSpace=wrap;html=1;" vertex="1" parent="1">
          <mxGeometry x="120" y="1660" width="120" height="60" as="geometry" />
        </mxCell>
        <mxCell id="wrcg6JFt1QbW0vFvjON_-130" value="EmployeeFirstName" style="rounded=0;whiteSpace=wrap;html=1;" vertex="1" parent="1">
          <mxGeometry x="240" y="1660" width="120" height="60" as="geometry" />
        </mxCell>
        <mxCell id="wrcg6JFt1QbW0vFvjON_-131" value="EmployeeLastName" style="rounded=0;whiteSpace=wrap;html=1;" vertex="1" parent="1">
          <mxGeometry x="360" y="1660" width="120" height="60" as="geometry" />
        </mxCell>
        <mxCell id="wrcg6JFt1QbW0vFvjON_-132" value="Role" style="rounded=0;whiteSpace=wrap;html=1;" vertex="1" parent="1">
          <mxGeometry x="480" y="1660" width="120" height="60" as="geometry" />
        </mxCell>
        <mxCell id="wrcg6JFt1QbW0vFvjON_-133" value="" style="edgeStyle=elbowEdgeStyle;elbow=vertical;endArrow=classic;html=1;curved=0;rounded=0;endSize=8;startSize=8;entryX=0.5;entryY=0;entryDx=0;entryDy=0;" edge="1" parent="1">
          <mxGeometry width="50" height="50" relative="1" as="geometry">
            <mxPoint x="180" y="1660" as="sourcePoint" />
            <mxPoint x="300" y="1660" as="targetPoint" />
            <Array as="points">
              <mxPoint x="210" y="1590" />
            </Array>
          </mxGeometry>
        </mxCell>
        <mxCell id="wrcg6JFt1QbW0vFvjON_-134" value="" style="edgeStyle=segmentEdgeStyle;endArrow=classic;html=1;curved=0;rounded=0;endSize=8;startSize=8;" edge="1" parent="1">
          <mxGeometry width="50" height="50" relative="1" as="geometry">
            <mxPoint x="300" y="1590" as="sourcePoint" />
            <mxPoint x="420" y="1660" as="targetPoint" />
          </mxGeometry>
        </mxCell>
        <mxCell id="wrcg6JFt1QbW0vFvjON_-135" value="" style="edgeStyle=segmentEdgeStyle;endArrow=classic;html=1;curved=0;rounded=0;endSize=8;startSize=8;" edge="1" parent="1">
          <mxGeometry width="50" height="50" relative="1" as="geometry">
            <mxPoint x="420" y="1590" as="sourcePoint" />
            <mxPoint x="540" y="1660" as="targetPoint" />
          </mxGeometry>
        </mxCell>
        <mxCell id="wrcg6JFt1QbW0vFvjON_-136" value="HireDate" style="rounded=0;whiteSpace=wrap;html=1;" vertex="1" parent="1">
          <mxGeometry x="600" y="1660" width="120" height="60" as="geometry" />
        </mxCell>
        <mxCell id="wrcg6JFt1QbW0vFvjON_-137" value="" style="edgeStyle=segmentEdgeStyle;endArrow=classic;html=1;curved=0;rounded=0;endSize=8;startSize=8;" edge="1" parent="1">
          <mxGeometry width="50" height="50" relative="1" as="geometry">
            <mxPoint x="540" y="1590" as="sourcePoint" />
            <mxPoint x="660" y="1660" as="targetPoint" />
          </mxGeometry>
        </mxCell>
        <mxCell id="wrcg6JFt1QbW0vFvjON_-138" value="Department" style="rounded=0;whiteSpace=wrap;html=1;" vertex="1" parent="1">
          <mxGeometry x="720" y="1660" width="120" height="60" as="geometry" />
        </mxCell>
        <mxCell id="wrcg6JFt1QbW0vFvjON_-139" value="SupervisorID" style="rounded=0;whiteSpace=wrap;html=1;" vertex="1" parent="1">
          <mxGeometry x="840" y="1660" width="120" height="60" as="geometry" />
        </mxCell>
        <mxCell id="wrcg6JFt1QbW0vFvjON_-140" value="" style="edgeStyle=segmentEdgeStyle;endArrow=classic;html=1;curved=0;rounded=0;endSize=8;startSize=8;" edge="1" parent="1">
          <mxGeometry width="50" height="50" relative="1" as="geometry">
            <mxPoint x="660" y="1590" as="sourcePoint" />
            <mxPoint x="780" y="1660" as="targetPoint" />
          </mxGeometry>
        </mxCell>
        <mxCell id="wrcg6JFt1QbW0vFvjON_-141" value="" style="edgeStyle=segmentEdgeStyle;endArrow=classic;html=1;curved=0;rounded=0;endSize=8;startSize=8;" edge="1" parent="1">
          <mxGeometry width="50" height="50" relative="1" as="geometry">
            <mxPoint x="780" y="1590" as="sourcePoint" />
            <mxPoint x="900" y="1660" as="targetPoint" />
          </mxGeometry>
        </mxCell>
        <mxCell id="wrcg6JFt1QbW0vFvjON_-142" value="EmploymentStatus" style="rounded=0;whiteSpace=wrap;html=1;" vertex="1" parent="1">
          <mxGeometry x="960" y="1660" width="120" height="60" as="geometry" />
        </mxCell>
        <mxCell id="wrcg6JFt1QbW0vFvjON_-143" value="" style="edgeStyle=segmentEdgeStyle;endArrow=classic;html=1;curved=0;rounded=0;endSize=8;startSize=8;" edge="1" parent="1">
          <mxGeometry width="50" height="50" relative="1" as="geometry">
            <mxPoint x="900" y="1590" as="sourcePoint" />
            <mxPoint x="1020" y="1660" as="targetPoint" />
          </mxGeometry>
        </mxCell>
        <mxCell id="wrcg6JFt1QbW0vFvjON_-144" value="Salary" style="rounded=0;whiteSpace=wrap;html=1;" vertex="1" parent="1">
          <mxGeometry x="1080" y="1660" width="120" height="60" as="geometry" />
        </mxCell>
        <mxCell id="wrcg6JFt1QbW0vFvjON_-145" value="" style="edgeStyle=segmentEdgeStyle;endArrow=classic;html=1;curved=0;rounded=0;endSize=8;startSize=8;" edge="1" parent="1">
          <mxGeometry width="50" height="50" relative="1" as="geometry">
            <mxPoint x="1020" y="1590" as="sourcePoint" />
            <mxPoint x="1140" y="1660" as="targetPoint" />
          </mxGeometry>
        </mxCell>
        <mxCell id="wrcg6JFt1QbW0vFvjON_-146" value="Employee" style="rounded=1;whiteSpace=wrap;html=1;" vertex="1" parent="1">
          <mxGeometry x="20" y="1530" width="120" height="60" as="geometry" />
        </mxCell>
        <mxCell id="wrcg6JFt1QbW0vFvjON_-147" value="MaintenanceRequestID" style="rounded=0;whiteSpace=wrap;html=1;" vertex="1" parent="1">
          <mxGeometry x="120" y="1910" width="150" height="60" as="geometry" />
        </mxCell>
        <mxCell id="wrcg6JFt1QbW0vFvjON_-148" value="SpaceshipID" style="rounded=0;whiteSpace=wrap;html=1;" vertex="1" parent="1">
          <mxGeometry x="270" y="1910" width="120" height="60" as="geometry" />
        </mxCell>
        <mxCell id="wrcg6JFt1QbW0vFvjON_-149" value="PartID" style="rounded=0;whiteSpace=wrap;html=1;" vertex="1" parent="1">
          <mxGeometry x="390" y="1910" width="120" height="60" as="geometry" />
        </mxCell>
        <mxCell id="wrcg6JFt1QbW0vFvjON_-150" value="RequestedBy (EmployeeID)" style="rounded=0;whiteSpace=wrap;html=1;" vertex="1" parent="1">
          <mxGeometry x="510" y="1910" width="120" height="60" as="geometry" />
        </mxCell>
        <mxCell id="wrcg6JFt1QbW0vFvjON_-151" value="" style="edgeStyle=elbowEdgeStyle;elbow=vertical;endArrow=classic;html=1;curved=0;rounded=0;endSize=8;startSize=8;entryX=0.5;entryY=0;entryDx=0;entryDy=0;" edge="1" parent="1">
          <mxGeometry width="50" height="50" relative="1" as="geometry">
            <mxPoint x="180" y="1910" as="sourcePoint" />
            <mxPoint x="300" y="1910" as="targetPoint" />
            <Array as="points">
              <mxPoint x="210" y="1840" />
            </Array>
          </mxGeometry>
        </mxCell>
        <mxCell id="wrcg6JFt1QbW0vFvjON_-152" value="" style="edgeStyle=segmentEdgeStyle;endArrow=classic;html=1;curved=0;rounded=0;endSize=8;startSize=8;" edge="1" parent="1">
          <mxGeometry width="50" height="50" relative="1" as="geometry">
            <mxPoint x="300" y="1840" as="sourcePoint" />
            <mxPoint x="450" y="1910" as="targetPoint" />
          </mxGeometry>
        </mxCell>
        <mxCell id="wrcg6JFt1QbW0vFvjON_-153" value="" style="edgeStyle=segmentEdgeStyle;endArrow=classic;html=1;curved=0;rounded=0;endSize=8;startSize=8;" edge="1" parent="1">
          <mxGeometry width="50" height="50" relative="1" as="geometry">
            <mxPoint x="450" y="1840" as="sourcePoint" />
            <mxPoint x="570" y="1910" as="targetPoint" />
          </mxGeometry>
        </mxCell>
        <mxCell id="wrcg6JFt1QbW0vFvjON_-154" value="RequestDate" style="rounded=0;whiteSpace=wrap;html=1;" vertex="1" parent="1">
          <mxGeometry x="630" y="1910" width="120" height="60" as="geometry" />
        </mxCell>
        <mxCell id="wrcg6JFt1QbW0vFvjON_-155" value="" style="edgeStyle=segmentEdgeStyle;endArrow=classic;html=1;curved=0;rounded=0;endSize=8;startSize=8;" edge="1" parent="1">
          <mxGeometry width="50" height="50" relative="1" as="geometry">
            <mxPoint x="570" y="1840" as="sourcePoint" />
            <mxPoint x="690" y="1910" as="targetPoint" />
          </mxGeometry>
        </mxCell>
        <mxCell id="wrcg6JFt1QbW0vFvjON_-156" value="RequestType" style="rounded=0;whiteSpace=wrap;html=1;" vertex="1" parent="1">
          <mxGeometry x="750" y="1910" width="120" height="60" as="geometry" />
        </mxCell>
        <mxCell id="wrcg6JFt1QbW0vFvjON_-157" value="RequestDescription" style="rounded=0;whiteSpace=wrap;html=1;" vertex="1" parent="1">
          <mxGeometry x="870" y="1910" width="120" height="60" as="geometry" />
        </mxCell>
        <mxCell id="wrcg6JFt1QbW0vFvjON_-158" value="" style="edgeStyle=segmentEdgeStyle;endArrow=classic;html=1;curved=0;rounded=0;endSize=8;startSize=8;" edge="1" parent="1">
          <mxGeometry width="50" height="50" relative="1" as="geometry">
            <mxPoint x="690" y="1840" as="sourcePoint" />
            <mxPoint x="810" y="1910" as="targetPoint" />
          </mxGeometry>
        </mxCell>
        <mxCell id="wrcg6JFt1QbW0vFvjON_-159" value="" style="edgeStyle=segmentEdgeStyle;endArrow=classic;html=1;curved=0;rounded=0;endSize=8;startSize=8;" edge="1" parent="1">
          <mxGeometry width="50" height="50" relative="1" as="geometry">
            <mxPoint x="810" y="1840" as="sourcePoint" />
            <mxPoint x="930" y="1910" as="targetPoint" />
          </mxGeometry>
        </mxCell>
        <mxCell id="wrcg6JFt1QbW0vFvjON_-160" value="PriorityLevel" style="rounded=0;whiteSpace=wrap;html=1;" vertex="1" parent="1">
          <mxGeometry x="990" y="1910" width="120" height="60" as="geometry" />
        </mxCell>
        <mxCell id="wrcg6JFt1QbW0vFvjON_-161" value="" style="edgeStyle=segmentEdgeStyle;endArrow=classic;html=1;curved=0;rounded=0;endSize=8;startSize=8;" edge="1" parent="1">
          <mxGeometry width="50" height="50" relative="1" as="geometry">
            <mxPoint x="930" y="1840" as="sourcePoint" />
            <mxPoint x="1050" y="1910" as="targetPoint" />
          </mxGeometry>
        </mxCell>
        <mxCell id="wrcg6JFt1QbW0vFvjON_-162" value="RequestStatus" style="rounded=0;whiteSpace=wrap;html=1;" vertex="1" parent="1">
          <mxGeometry x="1110" y="1910" width="120" height="60" as="geometry" />
        </mxCell>
        <mxCell id="wrcg6JFt1QbW0vFvjON_-163" value="" style="edgeStyle=segmentEdgeStyle;endArrow=classic;html=1;curved=0;rounded=0;endSize=8;startSize=8;" edge="1" parent="1">
          <mxGeometry width="50" height="50" relative="1" as="geometry">
            <mxPoint x="1050" y="1840" as="sourcePoint" />
            <mxPoint x="1170" y="1910" as="targetPoint" />
          </mxGeometry>
        </mxCell>
        <mxCell id="wrcg6JFt1QbW0vFvjON_-164" value="MaintenanceRequest" style="rounded=1;whiteSpace=wrap;html=1;" vertex="1" parent="1">
          <mxGeometry x="20" y="1780" width="120" height="60" as="geometry" />
        </mxCell>
        <mxCell id="wrcg6JFt1QbW0vFvjON_-197" value="CompletionDate" style="rounded=0;whiteSpace=wrap;html=1;" vertex="1" parent="1">
          <mxGeometry x="1230" y="1910" width="120" height="60" as="geometry" />
        </mxCell>
        <mxCell id="wrcg6JFt1QbW0vFvjON_-198" value="" style="edgeStyle=segmentEdgeStyle;endArrow=classic;html=1;curved=0;rounded=0;endSize=8;startSize=8;" edge="1" parent="1">
          <mxGeometry width="50" height="50" relative="1" as="geometry">
            <mxPoint x="1170" y="1840" as="sourcePoint" />
            <mxPoint x="1290" y="1910" as="targetPoint" />
          </mxGeometry>
        </mxCell>
        <mxCell id="wrcg6JFt1QbW0vFvjON_-199" value="FinanceRequestID" style="rounded=0;whiteSpace=wrap;html=1;" vertex="1" parent="1">
          <mxGeometry x="125" y="2170" width="150" height="60" as="geometry" />
        </mxCell>
        <mxCell id="wrcg6JFt1QbW0vFvjON_-200" value="SpaceshipID" style="rounded=0;whiteSpace=wrap;html=1;" vertex="1" parent="1">
          <mxGeometry x="275" y="2170" width="120" height="60" as="geometry" />
        </mxCell>
        <mxCell id="wrcg6JFt1QbW0vFvjON_-201" value="RequestedBy (CustomerID)" style="rounded=0;whiteSpace=wrap;html=1;" vertex="1" parent="1">
          <mxGeometry x="395" y="2170" width="120" height="60" as="geometry" />
        </mxCell>
        <mxCell id="wrcg6JFt1QbW0vFvjON_-202" value="ApprovedBy (EmployeeID)" style="rounded=0;whiteSpace=wrap;html=1;" vertex="1" parent="1">
          <mxGeometry x="515" y="2170" width="120" height="60" as="geometry" />
        </mxCell>
        <mxCell id="wrcg6JFt1QbW0vFvjON_-203" value="" style="edgeStyle=elbowEdgeStyle;elbow=vertical;endArrow=classic;html=1;curved=0;rounded=0;endSize=8;startSize=8;entryX=0.5;entryY=0;entryDx=0;entryDy=0;" edge="1" parent="1">
          <mxGeometry width="50" height="50" relative="1" as="geometry">
            <mxPoint x="185" y="2170" as="sourcePoint" />
            <mxPoint x="305" y="2170" as="targetPoint" />
            <Array as="points">
              <mxPoint x="215" y="2100" />
            </Array>
          </mxGeometry>
        </mxCell>
        <mxCell id="wrcg6JFt1QbW0vFvjON_-204" value="" style="edgeStyle=segmentEdgeStyle;endArrow=classic;html=1;curved=0;rounded=0;endSize=8;startSize=8;" edge="1" parent="1">
          <mxGeometry width="50" height="50" relative="1" as="geometry">
            <mxPoint x="305" y="2100" as="sourcePoint" />
            <mxPoint x="455" y="2170" as="targetPoint" />
          </mxGeometry>
        </mxCell>
        <mxCell id="wrcg6JFt1QbW0vFvjON_-205" value="" style="edgeStyle=segmentEdgeStyle;endArrow=classic;html=1;curved=0;rounded=0;endSize=8;startSize=8;" edge="1" parent="1">
          <mxGeometry width="50" height="50" relative="1" as="geometry">
            <mxPoint x="455" y="2100" as="sourcePoint" />
            <mxPoint x="575" y="2170" as="targetPoint" />
          </mxGeometry>
        </mxCell>
        <mxCell id="wrcg6JFt1QbW0vFvjON_-206" value="RequestDate" style="rounded=0;whiteSpace=wrap;html=1;" vertex="1" parent="1">
          <mxGeometry x="635" y="2170" width="120" height="60" as="geometry" />
        </mxCell>
        <mxCell id="wrcg6JFt1QbW0vFvjON_-207" value="" style="edgeStyle=segmentEdgeStyle;endArrow=classic;html=1;curved=0;rounded=0;endSize=8;startSize=8;" edge="1" parent="1">
          <mxGeometry width="50" height="50" relative="1" as="geometry">
            <mxPoint x="575" y="2100" as="sourcePoint" />
            <mxPoint x="695" y="2170" as="targetPoint" />
          </mxGeometry>
        </mxCell>
        <mxCell id="wrcg6JFt1QbW0vFvjON_-208" value="RequestType" style="rounded=0;whiteSpace=wrap;html=1;" vertex="1" parent="1">
          <mxGeometry x="755" y="2170" width="120" height="60" as="geometry" />
        </mxCell>
        <mxCell id="wrcg6JFt1QbW0vFvjON_-209" value="FinancedAmount" style="rounded=0;whiteSpace=wrap;html=1;" vertex="1" parent="1">
          <mxGeometry x="875" y="2170" width="120" height="60" as="geometry" />
        </mxCell>
        <mxCell id="wrcg6JFt1QbW0vFvjON_-210" value="" style="edgeStyle=segmentEdgeStyle;endArrow=classic;html=1;curved=0;rounded=0;endSize=8;startSize=8;" edge="1" parent="1">
          <mxGeometry width="50" height="50" relative="1" as="geometry">
            <mxPoint x="695" y="2100" as="sourcePoint" />
            <mxPoint x="815" y="2170" as="targetPoint" />
          </mxGeometry>
        </mxCell>
        <mxCell id="wrcg6JFt1QbW0vFvjON_-211" value="" style="edgeStyle=segmentEdgeStyle;endArrow=classic;html=1;curved=0;rounded=0;endSize=8;startSize=8;" edge="1" parent="1">
          <mxGeometry width="50" height="50" relative="1" as="geometry">
            <mxPoint x="815" y="2100" as="sourcePoint" />
            <mxPoint x="935" y="2170" as="targetPoint" />
          </mxGeometry>
        </mxCell>
        <mxCell id="wrcg6JFt1QbW0vFvjON_-212" value="ApprovalDate" style="rounded=0;whiteSpace=wrap;html=1;" vertex="1" parent="1">
          <mxGeometry x="995" y="2170" width="120" height="60" as="geometry" />
        </mxCell>
        <mxCell id="wrcg6JFt1QbW0vFvjON_-213" value="" style="edgeStyle=segmentEdgeStyle;endArrow=classic;html=1;curved=0;rounded=0;endSize=8;startSize=8;" edge="1" parent="1">
          <mxGeometry width="50" height="50" relative="1" as="geometry">
            <mxPoint x="935" y="2100" as="sourcePoint" />
            <mxPoint x="1055" y="2170" as="targetPoint" />
          </mxGeometry>
        </mxCell>
        <mxCell id="wrcg6JFt1QbW0vFvjON_-214" value="ApprovalStatus" style="rounded=0;whiteSpace=wrap;html=1;" vertex="1" parent="1">
          <mxGeometry x="1115" y="2170" width="120" height="60" as="geometry" />
        </mxCell>
        <mxCell id="wrcg6JFt1QbW0vFvjON_-215" value="" style="edgeStyle=segmentEdgeStyle;endArrow=classic;html=1;curved=0;rounded=0;endSize=8;startSize=8;" edge="1" parent="1">
          <mxGeometry width="50" height="50" relative="1" as="geometry">
            <mxPoint x="1055" y="2100" as="sourcePoint" />
            <mxPoint x="1175" y="2170" as="targetPoint" />
          </mxGeometry>
        </mxCell>
        <mxCell id="wrcg6JFt1QbW0vFvjON_-216" value="FinanceRequest" style="rounded=1;whiteSpace=wrap;html=1;" vertex="1" parent="1">
          <mxGeometry x="25" y="2040" width="120" height="60" as="geometry" />
        </mxCell>
        <mxCell id="wrcg6JFt1QbW0vFvjON_-217" value="RequestNotes" style="rounded=0;whiteSpace=wrap;html=1;" vertex="1" parent="1">
          <mxGeometry x="1235" y="2170" width="120" height="60" as="geometry" />
        </mxCell>
        <mxCell id="wrcg6JFt1QbW0vFvjON_-218" value="" style="edgeStyle=segmentEdgeStyle;endArrow=classic;html=1;curved=0;rounded=0;endSize=8;startSize=8;" edge="1" parent="1">
          <mxGeometry width="50" height="50" relative="1" as="geometry">
            <mxPoint x="1175" y="2100" as="sourcePoint" />
            <mxPoint x="1295" y="2170" as="targetPoint" />
          </mxGeometry>
        </mxCell>
        <mxCell id="wrcg6JFt1QbW0vFvjON_-219" value="InvoiceID" style="rounded=0;whiteSpace=wrap;html=1;" vertex="1" parent="1">
          <mxGeometry x="120" y="2410" width="150" height="60" as="geometry" />
        </mxCell>
        <mxCell id="wrcg6JFt1QbW0vFvjON_-220" value="InvoiceDateTime" style="rounded=0;whiteSpace=wrap;html=1;" vertex="1" parent="1">
          <mxGeometry x="270" y="2410" width="120" height="60" as="geometry" />
        </mxCell>
        <mxCell id="wrcg6JFt1QbW0vFvjON_-221" value="InvoiceAmount" style="rounded=0;whiteSpace=wrap;html=1;" vertex="1" parent="1">
          <mxGeometry x="390" y="2410" width="120" height="60" as="geometry" />
        </mxCell>
        <mxCell id="wrcg6JFt1QbW0vFvjON_-222" value="TaxAmount" style="rounded=0;whiteSpace=wrap;html=1;" vertex="1" parent="1">
          <mxGeometry x="510" y="2410" width="120" height="60" as="geometry" />
        </mxCell>
        <mxCell id="wrcg6JFt1QbW0vFvjON_-223" value="" style="edgeStyle=elbowEdgeStyle;elbow=vertical;endArrow=classic;html=1;curved=0;rounded=0;endSize=8;startSize=8;entryX=0.5;entryY=0;entryDx=0;entryDy=0;" edge="1" parent="1">
          <mxGeometry width="50" height="50" relative="1" as="geometry">
            <mxPoint x="180" y="2410" as="sourcePoint" />
            <mxPoint x="300" y="2410" as="targetPoint" />
            <Array as="points">
              <mxPoint x="210" y="2340" />
            </Array>
          </mxGeometry>
        </mxCell>
        <mxCell id="wrcg6JFt1QbW0vFvjON_-224" value="" style="edgeStyle=segmentEdgeStyle;endArrow=classic;html=1;curved=0;rounded=0;endSize=8;startSize=8;" edge="1" parent="1">
          <mxGeometry width="50" height="50" relative="1" as="geometry">
            <mxPoint x="300" y="2340" as="sourcePoint" />
            <mxPoint x="450" y="2410" as="targetPoint" />
          </mxGeometry>
        </mxCell>
        <mxCell id="wrcg6JFt1QbW0vFvjON_-225" value="" style="edgeStyle=segmentEdgeStyle;endArrow=classic;html=1;curved=0;rounded=0;endSize=8;startSize=8;" edge="1" parent="1">
          <mxGeometry width="50" height="50" relative="1" as="geometry">
            <mxPoint x="450" y="2340" as="sourcePoint" />
            <mxPoint x="570" y="2410" as="targetPoint" />
          </mxGeometry>
        </mxCell>
        <mxCell id="wrcg6JFt1QbW0vFvjON_-226" value="Currency" style="rounded=0;whiteSpace=wrap;html=1;" vertex="1" parent="1">
          <mxGeometry x="630" y="2410" width="120" height="60" as="geometry" />
        </mxCell>
        <mxCell id="wrcg6JFt1QbW0vFvjON_-227" value="" style="edgeStyle=segmentEdgeStyle;endArrow=classic;html=1;curved=0;rounded=0;endSize=8;startSize=8;" edge="1" parent="1">
          <mxGeometry width="50" height="50" relative="1" as="geometry">
            <mxPoint x="570" y="2340" as="sourcePoint" />
            <mxPoint x="690" y="2410" as="targetPoint" />
          </mxGeometry>
        </mxCell>
        <mxCell id="wrcg6JFt1QbW0vFvjON_-228" value="VendorID" style="rounded=0;whiteSpace=wrap;html=1;" vertex="1" parent="1">
          <mxGeometry x="750" y="2410" width="120" height="60" as="geometry" />
        </mxCell>
        <mxCell id="wrcg6JFt1QbW0vFvjON_-229" value="CustomerID" style="rounded=0;whiteSpace=wrap;html=1;" vertex="1" parent="1">
          <mxGeometry x="870" y="2410" width="120" height="60" as="geometry" />
        </mxCell>
        <mxCell id="wrcg6JFt1QbW0vFvjON_-230" value="" style="edgeStyle=segmentEdgeStyle;endArrow=classic;html=1;curved=0;rounded=0;endSize=8;startSize=8;" edge="1" parent="1">
          <mxGeometry width="50" height="50" relative="1" as="geometry">
            <mxPoint x="690" y="2340" as="sourcePoint" />
            <mxPoint x="810" y="2410" as="targetPoint" />
          </mxGeometry>
        </mxCell>
        <mxCell id="wrcg6JFt1QbW0vFvjON_-231" value="" style="edgeStyle=segmentEdgeStyle;endArrow=classic;html=1;curved=0;rounded=0;endSize=8;startSize=8;" edge="1" parent="1">
          <mxGeometry width="50" height="50" relative="1" as="geometry">
            <mxPoint x="810" y="2340" as="sourcePoint" />
            <mxPoint x="930" y="2410" as="targetPoint" />
          </mxGeometry>
        </mxCell>
        <mxCell id="wrcg6JFt1QbW0vFvjON_-232" value="OrderID" style="rounded=0;whiteSpace=wrap;html=1;" vertex="1" parent="1">
          <mxGeometry x="990" y="2410" width="120" height="60" as="geometry" />
        </mxCell>
        <mxCell id="wrcg6JFt1QbW0vFvjON_-233" value="" style="edgeStyle=segmentEdgeStyle;endArrow=classic;html=1;curved=0;rounded=0;endSize=8;startSize=8;" edge="1" parent="1">
          <mxGeometry width="50" height="50" relative="1" as="geometry">
            <mxPoint x="930" y="2340" as="sourcePoint" />
            <mxPoint x="1050" y="2410" as="targetPoint" />
          </mxGeometry>
        </mxCell>
        <mxCell id="wrcg6JFt1QbW0vFvjON_-234" value="PaymentID" style="rounded=0;whiteSpace=wrap;html=1;" vertex="1" parent="1">
          <mxGeometry x="1110" y="2410" width="120" height="60" as="geometry" />
        </mxCell>
        <mxCell id="wrcg6JFt1QbW0vFvjON_-235" value="" style="edgeStyle=segmentEdgeStyle;endArrow=classic;html=1;curved=0;rounded=0;endSize=8;startSize=8;" edge="1" parent="1">
          <mxGeometry width="50" height="50" relative="1" as="geometry">
            <mxPoint x="1050" y="2340" as="sourcePoint" />
            <mxPoint x="1170" y="2410" as="targetPoint" />
          </mxGeometry>
        </mxCell>
        <mxCell id="wrcg6JFt1QbW0vFvjON_-236" value="Invoice" style="rounded=1;whiteSpace=wrap;html=1;" vertex="1" parent="1">
          <mxGeometry x="20" y="2280" width="120" height="60" as="geometry" />
        </mxCell>
        <mxCell id="wrcg6JFt1QbW0vFvjON_-241" value="DueDate" style="rounded=0;whiteSpace=wrap;html=1;" vertex="1" parent="1">
          <mxGeometry x="1230" y="2410" width="130" height="60" as="geometry" />
        </mxCell>
        <mxCell id="wrcg6JFt1QbW0vFvjON_-242" value="" style="edgeStyle=segmentEdgeStyle;endArrow=classic;html=1;curved=0;rounded=0;endSize=8;startSize=8;" edge="1" parent="1">
          <mxGeometry width="50" height="50" relative="1" as="geometry">
            <mxPoint x="1160" y="2340" as="sourcePoint" />
            <mxPoint x="1290" y="2410" as="targetPoint" />
          </mxGeometry>
        </mxCell>
        <mxCell id="wrcg6JFt1QbW0vFvjON_-243" value="DateReceived" style="rounded=0;whiteSpace=wrap;html=1;" vertex="1" parent="1">
          <mxGeometry x="1360" y="2410" width="130" height="60" as="geometry" />
        </mxCell>
        <mxCell id="wrcg6JFt1QbW0vFvjON_-244" value="" style="edgeStyle=segmentEdgeStyle;endArrow=classic;html=1;curved=0;rounded=0;endSize=8;startSize=8;" edge="1" parent="1">
          <mxGeometry width="50" height="50" relative="1" as="geometry">
            <mxPoint x="1290" y="2340" as="sourcePoint" />
            <mxPoint x="1420" y="2410" as="targetPoint" />
          </mxGeometry>
        </mxCell>
        <mxCell id="wrcg6JFt1QbW0vFvjON_-245" value="ApprovedBy (EmployeeID)" style="rounded=0;whiteSpace=wrap;html=1;" vertex="1" parent="1">
          <mxGeometry x="1490" y="2410" width="130" height="60" as="geometry" />
        </mxCell>
        <mxCell id="wrcg6JFt1QbW0vFvjON_-246" value="" style="edgeStyle=segmentEdgeStyle;endArrow=classic;html=1;curved=0;rounded=0;endSize=8;startSize=8;" edge="1" parent="1">
          <mxGeometry width="50" height="50" relative="1" as="geometry">
            <mxPoint x="1420" y="2340" as="sourcePoint" />
            <mxPoint x="1550" y="2410" as="targetPoint" />
          </mxGeometry>
        </mxCell>
        <mxCell id="wrcg6JFt1QbW0vFvjON_-247" value="VendorInvoiceNumber" style="rounded=0;whiteSpace=wrap;html=1;" vertex="1" parent="1">
          <mxGeometry x="1620" y="2410" width="130" height="60" as="geometry" />
        </mxCell>
        <mxCell id="wrcg6JFt1QbW0vFvjON_-248" value="" style="edgeStyle=segmentEdgeStyle;endArrow=classic;html=1;curved=0;rounded=0;endSize=8;startSize=8;" edge="1" parent="1">
          <mxGeometry width="50" height="50" relative="1" as="geometry">
            <mxPoint x="1550" y="2340" as="sourcePoint" />
            <mxPoint x="1680" y="2410" as="targetPoint" />
          </mxGeometry>
        </mxCell>
        <mxCell id="wrcg6JFt1QbW0vFvjON_-249" value="VendorID" style="rounded=0;whiteSpace=wrap;html=1;" vertex="1" parent="1">
          <mxGeometry x="125" y="2660" width="150" height="60" as="geometry" />
        </mxCell>
        <mxCell id="wrcg6JFt1QbW0vFvjON_-250" value="VendorName" style="rounded=0;whiteSpace=wrap;html=1;" vertex="1" parent="1">
          <mxGeometry x="275" y="2660" width="120" height="60" as="geometry" />
        </mxCell>
        <mxCell id="wrcg6JFt1QbW0vFvjON_-251" value="VendorContact" style="rounded=0;whiteSpace=wrap;html=1;" vertex="1" parent="1">
          <mxGeometry x="395" y="2660" width="120" height="60" as="geometry" />
        </mxCell>
        <mxCell id="wrcg6JFt1QbW0vFvjON_-252" value="PhoneNumber" style="rounded=0;whiteSpace=wrap;html=1;" vertex="1" parent="1">
          <mxGeometry x="515" y="2660" width="120" height="60" as="geometry" />
        </mxCell>
        <mxCell id="wrcg6JFt1QbW0vFvjON_-253" value="" style="edgeStyle=elbowEdgeStyle;elbow=vertical;endArrow=classic;html=1;curved=0;rounded=0;endSize=8;startSize=8;entryX=0.5;entryY=0;entryDx=0;entryDy=0;" edge="1" parent="1">
          <mxGeometry width="50" height="50" relative="1" as="geometry">
            <mxPoint x="185" y="2660" as="sourcePoint" />
            <mxPoint x="305" y="2660" as="targetPoint" />
            <Array as="points">
              <mxPoint x="215" y="2590" />
            </Array>
          </mxGeometry>
        </mxCell>
        <mxCell id="wrcg6JFt1QbW0vFvjON_-254" value="" style="edgeStyle=segmentEdgeStyle;endArrow=classic;html=1;curved=0;rounded=0;endSize=8;startSize=8;" edge="1" parent="1">
          <mxGeometry width="50" height="50" relative="1" as="geometry">
            <mxPoint x="305" y="2590" as="sourcePoint" />
            <mxPoint x="455" y="2660" as="targetPoint" />
          </mxGeometry>
        </mxCell>
        <mxCell id="wrcg6JFt1QbW0vFvjON_-255" value="" style="edgeStyle=segmentEdgeStyle;endArrow=classic;html=1;curved=0;rounded=0;endSize=8;startSize=8;" edge="1" parent="1">
          <mxGeometry width="50" height="50" relative="1" as="geometry">
            <mxPoint x="455" y="2590" as="sourcePoint" />
            <mxPoint x="575" y="2660" as="targetPoint" />
          </mxGeometry>
        </mxCell>
        <mxCell id="wrcg6JFt1QbW0vFvjON_-256" value="Address" style="rounded=0;whiteSpace=wrap;html=1;" vertex="1" parent="1">
          <mxGeometry x="635" y="2660" width="120" height="60" as="geometry" />
        </mxCell>
        <mxCell id="wrcg6JFt1QbW0vFvjON_-257" value="" style="edgeStyle=segmentEdgeStyle;endArrow=classic;html=1;curved=0;rounded=0;endSize=8;startSize=8;" edge="1" parent="1">
          <mxGeometry width="50" height="50" relative="1" as="geometry">
            <mxPoint x="575" y="2590" as="sourcePoint" />
            <mxPoint x="695" y="2660" as="targetPoint" />
          </mxGeometry>
        </mxCell>
        <mxCell id="wrcg6JFt1QbW0vFvjON_-258" value="VendorType" style="rounded=0;whiteSpace=wrap;html=1;" vertex="1" parent="1">
          <mxGeometry x="755" y="2660" width="120" height="60" as="geometry" />
        </mxCell>
        <mxCell id="wrcg6JFt1QbW0vFvjON_-259" value="VendorStatus" style="rounded=0;whiteSpace=wrap;html=1;" vertex="1" parent="1">
          <mxGeometry x="875" y="2660" width="120" height="60" as="geometry" />
        </mxCell>
        <mxCell id="wrcg6JFt1QbW0vFvjON_-260" value="" style="edgeStyle=segmentEdgeStyle;endArrow=classic;html=1;curved=0;rounded=0;endSize=8;startSize=8;" edge="1" parent="1">
          <mxGeometry width="50" height="50" relative="1" as="geometry">
            <mxPoint x="695" y="2590" as="sourcePoint" />
            <mxPoint x="815" y="2660" as="targetPoint" />
          </mxGeometry>
        </mxCell>
        <mxCell id="wrcg6JFt1QbW0vFvjON_-261" value="" style="edgeStyle=segmentEdgeStyle;endArrow=classic;html=1;curved=0;rounded=0;endSize=8;startSize=8;" edge="1" parent="1">
          <mxGeometry width="50" height="50" relative="1" as="geometry">
            <mxPoint x="815" y="2590" as="sourcePoint" />
            <mxPoint x="935" y="2660" as="targetPoint" />
          </mxGeometry>
        </mxCell>
        <mxCell id="wrcg6JFt1QbW0vFvjON_-262" value="VendorRating" style="rounded=0;whiteSpace=wrap;html=1;" vertex="1" parent="1">
          <mxGeometry x="995" y="2660" width="120" height="60" as="geometry" />
        </mxCell>
        <mxCell id="wrcg6JFt1QbW0vFvjON_-263" value="" style="edgeStyle=segmentEdgeStyle;endArrow=classic;html=1;curved=0;rounded=0;endSize=8;startSize=8;" edge="1" parent="1">
          <mxGeometry width="50" height="50" relative="1" as="geometry">
            <mxPoint x="935" y="2590" as="sourcePoint" />
            <mxPoint x="1055" y="2660" as="targetPoint" />
          </mxGeometry>
        </mxCell>
        <mxCell id="wrcg6JFt1QbW0vFvjON_-266" value="Vendor" style="rounded=1;whiteSpace=wrap;html=1;" vertex="1" parent="1">
          <mxGeometry x="25" y="2530" width="120" height="60" as="geometry" />
        </mxCell>
      </root>
    </mxGraphModel>
  </diagram>
</mxfile>
